<svg width="32" height="32" viewBox="0 0 32 32" fill="none" xmlns="http://www.w3.org/2000/svg">
<path d="M22 2H26V6H30V10H26V6H22V2Z" fill="#55FFFF"/>
<path d="M18 6H22V10H26V14H22V10H18V6Z" fill="#55FFFF"/>
<path d="M14 10H18V14H22V18H18V14H14V10Z" fill="#55FFFF"/>
<path d="M10 14H14V18H18V22H14V18H10V14Z" fill="#55FFFF"/>
<path d="M6 18H10V22H14V26H10V22H6V18Z" fill="#55FFFF"/>
<path d="M2 22H6V26H10V30H6V26H2V22Z" fill="#55FFFF"/>
<path d="M2 2H6V6H10V10H6V6H2V2Z" fill="#00AAAA"/>
<path d="M6 6H10V10H14V14H10V10H6V6Z" fill="#00AAAA"/>
<path d="M10 10H14V14H18V18H14V14H10V10Z" fill="#00AAAA"/>
<path d="M14 14H18V18H22V22H18V18H14V14Z" fill="#00AAAA"/>
<path d="M18 18H22V22H26V26H22V22H18V18Z" fill="#00AAAA"/>
<path d="M22 22H26V26H30V30H26V26H22V22Z" fill="#00AAAA"/>
<path d="M10 22H14V26H18V30H14V26H10V22Z" fill="#8B4513"/>
<path d="M14 18H18V22H22V26H18V22H14V18Z" fill="#8B4513"/>
<path d="M18 14H22V18H26V22H22V18H18V14Z" fill="#8B4513"/>
<path d="M22 10H26V14H30V18H26V14H22V10Z" fill="#8B4513"/>
</svg>
